<svg xmlns="http://www.w3.org/2000/svg" xmlns:xlink="http://www.w3.org/1999/xlink" contentStyleType="text/css" height="1019px" preserveAspectRatio="none" style="width:760px;height:1019px;background:#FFFFFF;" version="1.1" viewBox="0 0 760 1019" width="760px" zoomAndPan="magnify"><defs/><g><rect fill="none" height="297.3496" style="stroke:#000000;stroke-width:1.5;" width="495.29" x="247.814" y="623.7676"/><rect fill="none" height="103.8867" style="stroke:#000000;stroke-width:1.5;" width="166.0342" x="257.814" y="677.3887"/><rect fill="none" height="103.8867" style="stroke:#000000;stroke-width:1.5;" width="475.29" x="257.814" y="810.2305"/><line style="stroke:#181818;stroke-width:0.5;stroke-dasharray:5.0,5.0;" x1="26" x2="26" y1="81.4883" y2="938.1172"/><line style="stroke:#181818;stroke-width:0.5;stroke-dasharray:5.0,5.0;" x1="136.1069" x2="136.1069" y1="81.4883" y2="938.1172"/><line style="stroke:#181818;stroke-width:0.5;stroke-dasharray:5.0,5.0;" x1="222.4292" x2="222.4292" y1="81.4883" y2="938.1172"/><line style="stroke:#181818;stroke-width:0.5;stroke-dasharray:5.0,5.0;" x1="294.814" x2="294.814" y1="81.4883" y2="938.1172"/><line style="stroke:#181818;stroke-width:0.5;stroke-dasharray:5.0,5.0;" x1="392.9165" x2="392.9165" y1="81.4883" y2="938.1172"/><line style="stroke:#181818;stroke-width:0.5;stroke-dasharray:5.0,5.0;" x1="470.8481" x2="470.8481" y1="81.4883" y2="938.1172"/><line style="stroke:#181818;stroke-width:0.5;stroke-dasharray:5.0,5.0;" x1="548.939" x2="548.939" y1="81.4883" y2="938.1172"/><line style="stroke:#181818;stroke-width:0.5;stroke-dasharray:5.0,5.0;" x1="614.5864" x2="614.5864" y1="81.4883" y2="938.1172"/><line style="stroke:#181818;stroke-width:0.5;stroke-dasharray:5.0,5.0;" x1="690.2515" x2="690.2515" y1="81.4883" y2="938.1172"/><text fill="#000000" font-family="sans-serif" font-size="14" lengthAdjust="spacing" textLength="36.3945" x="5" y="78.5352">Actor</text><ellipse cx="26.1973" cy="13.5" fill="#E2E2F0" rx="8" ry="8" style="stroke:#181818;stroke-width:0.5;"/><path d="M26.1973,21.5 L26.1973,48.5 M13.1973,29.5 L39.1973,29.5 M26.1973,48.5 L13.1973,63.5 M26.1973,48.5 L39.1973,63.5 " fill="none" style="stroke:#181818;stroke-width:0.5;"/><text fill="#000000" font-family="sans-serif" font-size="14" lengthAdjust="spacing" textLength="36.3945" x="5" y="950.6523">Actor</text><ellipse cx="26.1973" cy="962.1055" fill="#E2E2F0" rx="8" ry="8" style="stroke:#181818;stroke-width:0.5;"/><path d="M26.1973,970.1055 L26.1973,997.1055 M13.1973,978.1055 L39.1973,978.1055 M26.1973,997.1055 L13.1973,1012.1055 M26.1973,997.1055 L39.1973,1012.1055 " fill="none" style="stroke:#181818;stroke-width:0.5;"/><rect fill="#E2E2F0" height="30.4883" rx="2.5" ry="2.5" style="stroke:#181818;stroke-width:0.5;" width="70.9912" x="101.1069" y="50"/><text fill="#000000" font-family="sans-serif" font-size="14" lengthAdjust="spacing" textLength="56.9912" x="108.1069" y="70.5352">ServiceA</text><rect fill="#E2E2F0" height="30.4883" rx="2.5" ry="2.5" style="stroke:#181818;stroke-width:0.5;" width="70.9912" x="101.1069" y="937.1172"/><text fill="#000000" font-family="sans-serif" font-size="14" lengthAdjust="spacing" textLength="56.9912" x="108.1069" y="957.6523">ServiceA</text><rect fill="#E2E2F0" height="30.4883" rx="2.5" ry="2.5" style="stroke:#181818;stroke-width:0.5;" width="69.3848" x="188.4292" y="50"/><text fill="#000000" font-family="sans-serif" font-size="14" lengthAdjust="spacing" textLength="55.3848" x="195.4292" y="70.5352">ServiceB</text><rect fill="#E2E2F0" height="30.4883" rx="2.5" ry="2.5" style="stroke:#181818;stroke-width:0.5;" width="69.3848" x="188.4292" y="937.1172"/><text fill="#000000" font-family="sans-serif" font-size="14" lengthAdjust="spacing" textLength="55.3848" x="195.4292" y="957.6523">ServiceB</text><rect fill="#E2E2F0" height="30.4883" rx="2.5" ry="2.5" style="stroke:#181818;stroke-width:0.5;" width="55.8359" x="267.814" y="50"/><text fill="#000000" font-family="sans-serif" font-size="14" lengthAdjust="spacing" textLength="41.8359" x="274.814" y="70.5352">Frame</text><rect fill="#E2E2F0" height="30.4883" rx="2.5" ry="2.5" style="stroke:#181818;stroke-width:0.5;" width="55.8359" x="267.814" y="937.1172"/><text fill="#000000" font-family="sans-serif" font-size="14" lengthAdjust="spacing" textLength="41.8359" x="274.814" y="957.6523">Frame</text><text fill="#000000" font-family="sans-serif" font-size="14" lengthAdjust="spacing" textLength="34.9316" x="372.9165" y="78.5352">Retry</text><ellipse cx="393.3823" cy="49" fill="#E2E2F0" rx="12" ry="12" style="stroke:#181818;stroke-width:0.5;"/><polygon fill="#181818" points="389.3823,37,395.3823,32,393.3823,37,395.3823,42,389.3823,37" style="stroke:#181818;stroke-width:1.0;"/><text fill="#000000" font-family="sans-serif" font-size="14" lengthAdjust="spacing" textLength="34.9316" x="372.9165" y="950.6523">Retry</text><ellipse cx="393.3823" cy="969.6055" fill="#E2E2F0" rx="12" ry="12" style="stroke:#181818;stroke-width:0.5;"/><polygon fill="#181818" points="389.3823,957.6055,395.3823,952.6055,393.3823,957.6055,395.3823,962.6055,389.3823,957.6055" style="stroke:#181818;stroke-width:1.0;"/><rect fill="#E2E2F0" height="30.4883" style="stroke:#181818;stroke-width:0.5;" width="90.0908" x="427.8481" y="46"/><rect fill="#E2E2F0" height="30.4883" style="stroke:#181818;stroke-width:0.5;" width="90.0908" x="423.8481" y="50"/><text fill="#000000" font-family="sans-serif" font-size="14" lengthAdjust="spacing" textLength="76.0908" x="430.8481" y="70.5352">LocalCache</text><rect fill="#E2E2F0" height="30.4883" style="stroke:#181818;stroke-width:0.5;" width="90.0908" x="427.8481" y="937.1172"/><rect fill="#E2E2F0" height="30.4883" style="stroke:#181818;stroke-width:0.5;" width="90.0908" x="423.8481" y="941.1172"/><text fill="#000000" font-family="sans-serif" font-size="14" lengthAdjust="spacing" textLength="76.0908" x="430.8481" y="961.6523">LocalCache</text><text fill="#000000" font-family="sans-serif" font-size="14" lengthAdjust="spacing" textLength="36.6475" x="527.939" y="78.5352">Redis</text><ellipse cx="549.2627" cy="49" fill="#E2E2F0" rx="12" ry="12" style="stroke:#181818;stroke-width:0.5;"/><line style="stroke:#181818;stroke-width:0.5;" x1="537.2627" x2="561.2627" y1="63" y2="63"/><text fill="#000000" font-family="sans-serif" font-size="14" lengthAdjust="spacing" textLength="36.6475" x="527.939" y="950.6523">Redis</text><ellipse cx="549.2627" cy="969.6055" fill="#E2E2F0" rx="12" ry="12" style="stroke:#181818;stroke-width:0.5;"/><line style="stroke:#181818;stroke-width:0.5;" x1="537.2627" x2="561.2627" y1="983.6055" y2="983.6055"/><text fill="#000000" font-family="sans-serif" font-size="14" lengthAdjust="spacing" textLength="62.665" x="580.5864" y="78.5352">Database</text><path d="M596.9189,29 C596.9189,19 614.9189,19 614.9189,19 C614.9189,19 632.9189,19 632.9189,29 L632.9189,55 C632.9189,65 614.9189,65 614.9189,65 C614.9189,65 596.9189,65 596.9189,55 L596.9189,29 " fill="#E2E2F0" style="stroke:#181818;stroke-width:1.5;"/><path d="M596.9189,29 C596.9189,39 614.9189,39 614.9189,39 C614.9189,39 632.9189,39 632.9189,29 " fill="none" style="stroke:#181818;stroke-width:1.5;"/><text fill="#000000" font-family="sans-serif" font-size="14" lengthAdjust="spacing" textLength="62.665" x="580.5864" y="950.6523">Database</text><path d="M596.9189,963.6055 C596.9189,953.6055 614.9189,953.6055 614.9189,953.6055 C614.9189,953.6055 632.9189,953.6055 632.9189,963.6055 L632.9189,989.6055 C632.9189,999.6055 614.9189,999.6055 614.9189,999.6055 C614.9189,999.6055 596.9189,999.6055 596.9189,989.6055 L596.9189,963.6055 " fill="#E2E2F0" style="stroke:#181818;stroke-width:1.5;"/><path d="M596.9189,963.6055 C596.9189,973.6055 614.9189,973.6055 614.9189,973.6055 C614.9189,973.6055 632.9189,973.6055 632.9189,963.6055 " fill="none" style="stroke:#181818;stroke-width:1.5;"/><path d="M664.2515,55 L718.104,55 C723.104,55 723.104,68.2441 723.104,68.2441 C723.104,68.2441 723.104,81.4883 718.104,81.4883 L664.2515,81.4883 C659.2515,81.4883 659.2515,68.2441 659.2515,68.2441 C659.2515,68.2441 659.2515,55 664.2515,55 " fill="#E2E2F0" style="stroke:#181818;stroke-width:0.5;"/><path d="M718.104,55 C713.104,55 713.104,68.2441 713.104,68.2441 C713.104,81.4883 718.104,81.4883 718.104,81.4883 " fill="none" style="stroke:#181818;stroke-width:0.5;"/><text fill="#000000" font-family="sans-serif" font-size="14" lengthAdjust="spacing" textLength="43.8525" x="664.2515" y="73.5352">Queue</text><path d="M664.2515,937.1172 L718.104,937.1172 C723.104,937.1172 723.104,950.3613 723.104,950.3613 C723.104,950.3613 723.104,963.6055 718.104,963.6055 L664.2515,963.6055 C659.2515,963.6055 659.2515,950.3613 659.2515,950.3613 C659.2515,950.3613 659.2515,937.1172 664.2515,937.1172 " fill="#E2E2F0" style="stroke:#181818;stroke-width:0.5;"/><path d="M718.104,937.1172 C713.104,937.1172 713.104,950.3613 713.104,950.3613 C713.104,963.6055 718.104,963.6055 718.104,963.6055 " fill="none" style="stroke:#181818;stroke-width:0.5;"/><text fill="#000000" font-family="sans-serif" font-size="14" lengthAdjust="spacing" textLength="43.8525" x="664.2515" y="955.6523">Queue</text><polygon fill="#181818" points="124.6025,108.7988,134.6025,112.7988,124.6025,116.7988,128.6025,112.7988" style="stroke:#181818;stroke-width:1.0;"/><line style="stroke:#181818;stroke-width:1.0;" x1="26.1973" x2="130.6025" y1="112.7988" y2="112.7988"/><text fill="#000000" font-family="sans-serif" font-size="13" font-weight="bold" lengthAdjust="spacing" textLength="8.5757" x="33.1973" y="108.0566">1</text><text fill="#000000" font-family="sans-serif" font-size="13" lengthAdjust="spacing" textLength="73.8296" x="45.7729" y="108.0566">update &#35831;&#27714;</text><polygon fill="#181818" points="283.7319,138.1094,293.7319,142.1094,283.7319,146.1094,287.7319,142.1094" style="stroke:#181818;stroke-width:1.0;"/><line style="stroke:#181818;stroke-width:1.0;" x1="136.6025" x2="289.7319" y1="142.1094" y2="142.1094"/><text fill="#000000" font-family="sans-serif" font-size="13" font-weight="bold" lengthAdjust="spacing" textLength="8.5757" x="143.6025" y="137.3672">2</text><text fill="#000000" font-family="sans-serif" font-size="13" lengthAdjust="spacing" textLength="73.8296" x="156.1782" y="137.3672">update &#35831;&#27714;</text><polygon fill="#181818" points="458.8936,167.4199,468.8936,171.4199,458.8936,175.4199,462.8936,171.4199" style="stroke:#181818;stroke-width:1.0;"/><line style="stroke:#181818;stroke-width:1.0;" x1="295.7319" x2="464.8936" y1="171.4199" y2="171.4199"/><text fill="#000000" font-family="sans-serif" font-size="13" font-weight="bold" lengthAdjust="spacing" textLength="8.5757" x="302.7319" y="166.6777">3</text><text fill="#000000" font-family="sans-serif" font-size="13" lengthAdjust="spacing" textLength="78" x="315.3076" y="166.6777">&#21024;&#38500;&#26412;&#22320;&#32531;&#23384;</text><polygon fill="#181818" points="306.7319,196.7305,296.7319,200.7305,306.7319,204.7305,302.7319,200.7305" style="stroke:#181818;stroke-width:1.0;"/><line style="stroke:#181818;stroke-width:1.0;" x1="300.7319" x2="469.8936" y1="200.7305" y2="200.7305"/><text fill="#000000" font-family="sans-serif" font-size="13" font-weight="bold" lengthAdjust="spacing" textLength="8.5757" x="312.7319" y="195.9883">4</text><text fill="#000000" font-family="sans-serif" font-size="13" lengthAdjust="spacing" textLength="21.436" x="325.3076" y="195.9883">ack</text><polygon fill="#181818" points="537.2627,226.041,547.2627,230.041,537.2627,234.041,541.2627,230.041" style="stroke:#181818;stroke-width:1.0;"/><line style="stroke:#181818;stroke-width:1.0;" x1="295.7319" x2="543.2627" y1="230.041" y2="230.041"/><text fill="#000000" font-family="sans-serif" font-size="13" font-weight="bold" lengthAdjust="spacing" textLength="8.5757" x="302.7319" y="225.2988">5</text><text fill="#000000" font-family="sans-serif" font-size="13" lengthAdjust="spacing" textLength="91" x="315.3076" y="225.2988">&#21024;&#38500;&#20998;&#24067;&#24335;&#32531;&#23384;</text><polygon fill="#181818" points="306.7319,255.3516,296.7319,259.3516,306.7319,263.3516,302.7319,259.3516" style="stroke:#181818;stroke-width:1.0;"/><line style="stroke:#181818;stroke-width:1.0;" x1="300.7319" x2="548.2627" y1="259.3516" y2="259.3516"/><text fill="#000000" font-family="sans-serif" font-size="13" font-weight="bold" lengthAdjust="spacing" textLength="8.5757" x="312.7319" y="254.6094">6</text><text fill="#000000" font-family="sans-serif" font-size="13" lengthAdjust="spacing" textLength="21.436" x="325.3076" y="254.6094">ack</text><polygon fill="#181818" points="602.9189,284.6621,612.9189,288.6621,602.9189,292.6621,606.9189,288.6621" style="stroke:#181818;stroke-width:1.0;"/><line style="stroke:#181818;stroke-width:1.0;" x1="295.7319" x2="608.9189" y1="288.6621" y2="288.6621"/><text fill="#000000" font-family="sans-serif" font-size="13" font-weight="bold" lengthAdjust="spacing" textLength="8.5757" x="302.7319" y="283.9199">7</text><text fill="#000000" font-family="sans-serif" font-size="13" lengthAdjust="spacing" textLength="52" x="315.3076" y="283.9199">&#26356;&#26032;&#25968;&#25454;</text><polygon fill="#181818" points="306.7319,313.9727,296.7319,317.9727,306.7319,321.9727,302.7319,317.9727" style="stroke:#181818;stroke-width:1.0;"/><line style="stroke:#181818;stroke-width:1.0;" x1="300.7319" x2="613.9189" y1="317.9727" y2="317.9727"/><text fill="#000000" font-family="sans-serif" font-size="13" font-weight="bold" lengthAdjust="spacing" textLength="8.5757" x="312.7319" y="313.2305">8</text><text fill="#000000" font-family="sans-serif" font-size="13" lengthAdjust="spacing" textLength="21.436" x="325.3076" y="313.2305">ack</text><polygon fill="#181818" points="679.1777,343.2832,689.1777,347.2832,679.1777,351.2832,683.1777,347.2832" style="stroke:#181818;stroke-width:1.0;"/><line style="stroke:#181818;stroke-width:1.0;stroke-dasharray:2.0,2.0;" x1="295.7319" x2="685.1777" y1="347.2832" y2="347.2832"/><text fill="#000000" font-family="sans-serif" font-size="13" font-weight="bold" lengthAdjust="spacing" textLength="8.5757" x="302.7319" y="342.541">9</text><text fill="#000000" font-family="sans-serif" font-size="13" lengthAdjust="spacing" textLength="156" x="315.3076" y="342.541">&#24191;&#25773;&#21457;&#36865;&#21024;&#38500;&#26412;&#22320;&#32531;&#23384;&#28040;&#24687;</text><polygon fill="#181818" points="679.1777,372.5938,689.1777,376.5938,679.1777,380.5938,683.1777,376.5938" style="stroke:#181818;stroke-width:1.0;"/><line style="stroke:#181818;stroke-width:1.0;stroke-dasharray:2.0,2.0;" x1="295.7319" x2="685.1777" y1="376.5938" y2="376.5938"/><text fill="#000000" font-family="sans-serif" font-size="13" font-weight="bold" lengthAdjust="spacing" textLength="17.1514" x="302.7319" y="371.8516">10</text><text fill="#000000" font-family="sans-serif" font-size="13" lengthAdjust="spacing" textLength="143" x="323.8833" y="371.8516">&#21457;&#36865;&#21024;&#38500;&#20998;&#24067;&#24335;&#32531;&#23384;&#28040;&#24687;</text><polygon fill="#181818" points="147.6025,401.9043,137.6025,405.9043,147.6025,409.9043,143.6025,405.9043" style="stroke:#181818;stroke-width:1.0;"/><line style="stroke:#181818;stroke-width:1.0;" x1="141.6025" x2="294.7319" y1="405.9043" y2="405.9043"/><text fill="#000000" font-family="sans-serif" font-size="13" font-weight="bold" lengthAdjust="spacing" textLength="17.1514" x="153.6025" y="401.1621">11</text><text fill="#000000" font-family="sans-serif" font-size="13" lengthAdjust="spacing" textLength="26" x="174.7539" y="401.1621">&#36820;&#22238;</text><polygon fill="#181818" points="211.1216,431.2148,221.1216,435.2148,211.1216,439.2148,215.1216,435.2148" style="stroke:#181818;stroke-width:1.0;"/><line style="stroke:#181818;stroke-width:1.0;" x1="136.6025" x2="217.1216" y1="435.2148" y2="435.2148"/><text fill="#000000" font-family="sans-serif" font-size="13" font-weight="bold" lengthAdjust="spacing" textLength="17.1514" x="143.6025" y="430.4727">12</text><text fill="#000000" font-family="sans-serif" font-size="13" lengthAdjust="spacing" textLength="41.3677" x="164.7539" y="430.4727">Invoke</text><polygon fill="#181818" points="147.6025,460.5254,137.6025,464.5254,147.6025,468.5254,143.6025,464.5254" style="stroke:#181818;stroke-width:1.0;"/><line style="stroke:#181818;stroke-width:1.0;" x1="141.6025" x2="222.1216" y1="464.5254" y2="464.5254"/><text fill="#000000" font-family="sans-serif" font-size="13" font-weight="bold" lengthAdjust="spacing" textLength="17.1514" x="153.6025" y="459.7832">13</text><text fill="#000000" font-family="sans-serif" font-size="13" lengthAdjust="spacing" textLength="38.8794" x="174.7539" y="459.7832">return</text><polygon fill="#181818" points="37.1973,489.8359,27.1973,493.8359,37.1973,497.8359,33.1973,493.8359" style="stroke:#181818;stroke-width:1.0;"/><line style="stroke:#181818;stroke-width:1.0;" x1="31.1973" x2="135.6025" y1="493.8359" y2="493.8359"/><text fill="#000000" font-family="sans-serif" font-size="13" font-weight="bold" lengthAdjust="spacing" textLength="17.1514" x="43.1973" y="489.0938">14</text><text fill="#000000" font-family="sans-serif" font-size="13" lengthAdjust="spacing" textLength="26" x="64.3486" y="489.0938">&#36820;&#22238;</text><rect fill="#EEEEEE" height="3" style="stroke:#EEEEEE;stroke-width:1.0;" width="753.104" x="0" y="522.4912"/><line style="stroke:#000000;stroke-width:1.0;" x1="0" x2="753.104" y1="522.4912" y2="522.4912"/><line style="stroke:#000000;stroke-width:1.0;" x1="0" x2="753.104" y1="525.4912" y2="525.4912"/><rect fill="#EEEEEE" height="23.3105" style="stroke:#000000;stroke-width:2.0;" width="36.5088" x="358.2976" y="511.8359"/><text fill="#000000" font-family="sans-serif" font-size="13" font-weight="bold" lengthAdjust="spacing" textLength="22.5088" x="364.2976" y="528.4043">MQ</text><polygon fill="#181818" points="306.7319,562.457,296.7319,566.457,306.7319,570.457,302.7319,566.457" style="stroke:#181818;stroke-width:1.0;"/><line style="stroke:#181818;stroke-width:1.0;" x1="300.7319" x2="690.1777" y1="566.457" y2="566.457"/><text fill="#000000" font-family="sans-serif" font-size="13" font-weight="bold" lengthAdjust="spacing" textLength="17.1514" x="312.7319" y="561.7148">15</text><text fill="#000000" font-family="sans-serif" font-size="13" lengthAdjust="spacing" textLength="61.0581" x="333.8833" y="561.7148">push &#28040;&#24687;</text><line style="stroke:#181818;stroke-width:1.0;" x1="295.7319" x2="337.7319" y1="595.7676" y2="595.7676"/><line style="stroke:#181818;stroke-width:1.0;" x1="337.7319" x2="337.7319" y1="595.7676" y2="608.7676"/><line style="stroke:#181818;stroke-width:1.0;" x1="296.7319" x2="337.7319" y1="608.7676" y2="608.7676"/><polygon fill="#181818" points="306.7319,604.7676,296.7319,608.7676,306.7319,612.7676,302.7319,608.7676" style="stroke:#181818;stroke-width:1.0;"/><text fill="#000000" font-family="sans-serif" font-size="13" font-weight="bold" lengthAdjust="spacing" textLength="17.1514" x="302.7319" y="591.0254">16</text><text fill="#000000" font-family="sans-serif" font-size="13" lengthAdjust="spacing" textLength="62.499" x="323.8833" y="591.0254">sleep 1 &#31186;</text><path d="M247.814,623.7676 L309.9526,623.7676 L309.9526,631.0781 L299.9526,641.0781 L247.814,641.0781 L247.814,623.7676 " fill="#EEEEEE" style="stroke:#000000;stroke-width:1.5;"/><rect fill="none" height="297.3496" style="stroke:#000000;stroke-width:1.5;" width="495.29" x="247.814" y="623.7676"/><text fill="#000000" font-family="sans-serif" font-size="13" font-weight="bold" lengthAdjust="spacing" textLength="17.1387" x="262.814" y="637.3359">alt</text><text fill="#000000" font-family="sans-serif" font-size="11" font-weight="bold" lengthAdjust="spacing" textLength="74.1533" x="324.9526" y="636.4023">[&#26412;&#22320;&#32531;&#23384;&#28040;&#24687;]</text><polygon fill="#181818" points="458.8936,658.3887,468.8936,662.3887,458.8936,666.3887,462.8936,662.3887" style="stroke:#181818;stroke-width:1.0;"/><line style="stroke:#181818;stroke-width:1.0;" x1="295.7319" x2="464.8936" y1="662.3887" y2="662.3887"/><text fill="#000000" font-family="sans-serif" font-size="13" font-weight="bold" lengthAdjust="spacing" textLength="17.1514" x="302.7319" y="657.6465">17</text><text fill="#000000" font-family="sans-serif" font-size="13" lengthAdjust="spacing" textLength="78" x="323.8833" y="657.6465">&#21024;&#38500;&#26412;&#22320;&#32531;&#23384;</text><path d="M257.814,677.3887 L319.9526,677.3887 L319.9526,684.6992 L309.9526,694.6992 L257.814,694.6992 L257.814,677.3887 " fill="#EEEEEE" style="stroke:#000000;stroke-width:1.5;"/><rect fill="none" height="103.8867" style="stroke:#000000;stroke-width:1.5;" width="166.0342" x="257.814" y="677.3887"/><text fill="#000000" font-family="sans-serif" font-size="13" font-weight="bold" lengthAdjust="spacing" textLength="17.1387" x="272.814" y="690.957">alt</text><text fill="#000000" font-family="sans-serif" font-size="11" font-weight="bold" lengthAdjust="spacing" textLength="41.1533" x="334.9526" y="690.0234">[&#25104;&#21151;&#65311;]</text><line style="stroke:#181818;stroke-width:1.0;" x1="295.7319" x2="337.7319" y1="716.0098" y2="716.0098"/><line style="stroke:#181818;stroke-width:1.0;" x1="337.7319" x2="337.7319" y1="716.0098" y2="729.0098"/><line style="stroke:#181818;stroke-width:1.0;" x1="296.7319" x2="337.7319" y1="729.0098" y2="729.0098"/><polygon fill="#181818" points="306.7319,725.0098,296.7319,729.0098,306.7319,733.0098,302.7319,729.0098" style="stroke:#181818;stroke-width:1.0;"/><text fill="#000000" font-family="sans-serif" font-size="13" font-weight="bold" lengthAdjust="spacing" textLength="17.1514" x="302.7319" y="711.2676">18</text><text fill="#000000" font-family="sans-serif" font-size="13" lengthAdjust="spacing" textLength="26" x="323.8833" y="711.2676">&#36820;&#22238;</text><line style="stroke:#000000;stroke-width:1.0;stroke-dasharray:2.0,2.0;" x1="257.814" x2="423.8481" y1="738.0098" y2="738.0098"/><text fill="#000000" font-family="sans-serif" font-size="11" font-weight="bold" lengthAdjust="spacing" textLength="30.1533" x="262.814" y="748.6445">[&#22833;&#36133;]</text><polygon fill="#181818" points="381.3823,769.2754,391.3823,773.2754,381.3823,777.2754,385.3823,773.2754" style="stroke:#181818;stroke-width:1.0;"/><line style="stroke:#181818;stroke-width:1.0;" x1="295.7319" x2="387.3823" y1="773.2754" y2="773.2754"/><text fill="#000000" font-family="sans-serif" font-size="13" font-weight="bold" lengthAdjust="spacing" textLength="17.1514" x="302.7319" y="768.5332">19</text><text fill="#000000" font-family="sans-serif" font-size="13" lengthAdjust="spacing" textLength="52" x="323.8833" y="768.5332">&#20869;&#23384;&#37325;&#35797;</text><line style="stroke:#000000;stroke-width:1.0;stroke-dasharray:2.0,2.0;" x1="247.814" x2="743.104" y1="789.2754" y2="789.2754"/><text fill="#000000" font-family="sans-serif" font-size="11" font-weight="bold" lengthAdjust="spacing" textLength="85.1533" x="252.814" y="799.9102">[&#20998;&#24067;&#24335;&#32531;&#23384;&#28040;&#24687;]</text><path d="M257.814,810.2305 L319.9526,810.2305 L319.9526,817.541 L309.9526,827.541 L257.814,827.541 L257.814,810.2305 " fill="#EEEEEE" style="stroke:#000000;stroke-width:1.5;"/><rect fill="none" height="103.8867" style="stroke:#000000;stroke-width:1.5;" width="475.29" x="257.814" y="810.2305"/><text fill="#000000" font-family="sans-serif" font-size="13" font-weight="bold" lengthAdjust="spacing" textLength="17.1387" x="272.814" y="823.7988">alt</text><text fill="#000000" font-family="sans-serif" font-size="11" font-weight="bold" lengthAdjust="spacing" textLength="41.1533" x="334.9526" y="822.8652">[&#25104;&#21151;&#65311;]</text><line style="stroke:#181818;stroke-width:1.0;" x1="295.7319" x2="337.7319" y1="848.8516" y2="848.8516"/><line style="stroke:#181818;stroke-width:1.0;" x1="337.7319" x2="337.7319" y1="848.8516" y2="861.8516"/><line style="stroke:#181818;stroke-width:1.0;" x1="296.7319" x2="337.7319" y1="861.8516" y2="861.8516"/><polygon fill="#181818" points="306.7319,857.8516,296.7319,861.8516,306.7319,865.8516,302.7319,861.8516" style="stroke:#181818;stroke-width:1.0;"/><text fill="#000000" font-family="sans-serif" font-size="13" font-weight="bold" lengthAdjust="spacing" textLength="17.1514" x="302.7319" y="844.1094">20</text><text fill="#000000" font-family="sans-serif" font-size="13" lengthAdjust="spacing" textLength="26" x="323.8833" y="844.1094">&#36820;&#22238;</text><line style="stroke:#000000;stroke-width:1.0;stroke-dasharray:2.0,2.0;" x1="257.814" x2="733.104" y1="870.8516" y2="870.8516"/><text fill="#000000" font-family="sans-serif" font-size="11" font-weight="bold" lengthAdjust="spacing" textLength="30.1533" x="262.814" y="881.4863">[&#22833;&#36133;]</text><polygon fill="#181818" points="679.1777,902.1172,689.1777,906.1172,679.1777,910.1172,683.1777,906.1172" style="stroke:#181818;stroke-width:1.0;"/><line style="stroke:#181818;stroke-width:1.0;" x1="295.7319" x2="685.1777" y1="906.1172" y2="906.1172"/><text fill="#000000" font-family="sans-serif" font-size="13" font-weight="bold" lengthAdjust="spacing" textLength="17.1514" x="302.7319" y="901.375">21</text><text fill="#000000" font-family="sans-serif" font-size="13" lengthAdjust="spacing" textLength="51.4097" x="323.8833" y="901.375">MQ &#37325;&#35797;</text><!--SRC=[dLFBIiD05DtFLzmVSE4s4C4gWg2BwXUCwO2XCOcJIS6T3wn5A6greYZgGd6ZjaBn0GM_PiPqvIyupIIJj8qRixglS-wzvsPmo3mtt5WZ566BUHJKDvkpSQ1Sv6FARClsiSjWbT2QRP7POJQrYmfAkOBIIC42nHjac8qDP7akevuJTrmXZ6wblMD7fXs7MCpst02MF0ixSzXQZ-6PXuZBRAQ04bQn0yX8f8SgcE4r791XS3vdouBKHPiX2KcoUJbdoveIzQfI9wJ4cPh9H30Wz2KvWQZpBbvtaKx88hNdU8MAodHk6GDuusvmUI-kd_Xrzxj_ofylK9PFkGp0LZKZK8kcMDweyuyztZzAu2hx1rHhO82uwedphcXtHVC5wVWeBWNAg99YsFNpIxIU-T79O7jdSdhnrX0xdM9W3Z8sT8BIOwPg6X1zdV6hcn5vzNzcmA9Ra-H8HqQWbB2GkXewDHDVKLEQvdBPD54oNhQt7mRhC3vGaWiSGdoOXk_75i8EWuBD2yvSUEKOtZZcXxS__Tk9HicCn94duVUlKUyXVtxvF2HdVL_o30wQKQSjtq4bAIuKzl_Db3m6B9SXtygj_080]--></g></svg>